<svg width="163" height="26" viewBox="0 0 163 26" fill="none" xmlns="http://www.w3.org/2000/svg">
<path d="M0.196 20.384V19.448C0.196 19.04 0.4 18.836 0.808 18.836H3.112C3.52 18.836 3.724 19.04 3.724 19.448V20.096C3.724 21.104 3.94 21.836 4.372 22.292C4.828 22.724 5.572 22.94 6.604 22.94H9.088C10.12 22.94 10.864 22.712 11.32 22.256C11.776 21.776 12.004 21.008 12.004 19.952V19.124C12.004 18.356 11.704 17.756 11.104 17.324C10.528 16.868 9.808 16.58 8.944 16.46C8.08 16.316 7.132 16.124 6.1 15.884C5.068 15.644 4.12 15.368 3.256 15.056C2.392 14.744 1.66 14.156 1.06 13.292C0.484 12.428 0.196 11.324 0.196 9.98V8.468C0.196 6.716 0.688 5.348 1.672 4.364C2.68 3.356 4.06 2.852 5.812 2.852H9.628C11.404 2.852 12.784 3.356 13.768 4.364C14.776 5.348 15.28 6.716 15.28 8.468V9.26C15.28 9.668 15.076 9.872 14.668 9.872H12.364C11.956 9.872 11.752 9.668 11.752 9.26V8.792C11.752 7.76 11.524 7.028 11.068 6.596C10.636 6.14 9.904 5.912 8.872 5.912H6.604C5.572 5.912 4.828 6.152 4.372 6.632C3.94 7.088 3.724 7.88 3.724 9.008V10.124C3.724 11.204 4.504 11.936 6.064 12.32C6.76 12.488 7.516 12.632 8.332 12.752C9.172 12.872 10.012 13.052 10.852 13.292C11.692 13.532 12.46 13.856 13.156 14.264C13.852 14.648 14.416 15.248 14.848 16.064C15.28 16.856 15.496 17.828 15.496 18.98V20.384C15.496 22.136 14.992 23.516 13.984 24.524C13 25.508 11.632 26 9.88 26H5.848C4.096 26 2.716 25.508 1.708 24.524C0.7 23.516 0.196 22.136 0.196 20.384ZM22.8707 26H20.6027C20.1947 26 19.9907 25.796 19.9907 25.388V1.304C19.9907 0.895999 20.1947 0.692 20.6027 0.692H22.8707C23.2787 0.692 23.4827 0.895999 23.4827 1.304V9.548H23.6267C24.2027 8.276 25.4147 7.64 27.2627 7.64H28.8467C30.5987 7.64 31.9427 8.12 32.8787 9.08C33.8147 10.04 34.2827 11.42 34.2827 13.22V25.388C34.2827 25.796 34.0667 26 33.6347 26H31.3667C30.9587 26 30.7547 25.796 30.7547 25.388V13.364C30.7547 11.588 29.8787 10.7 28.1267 10.7H26.4347C24.4667 10.7 23.4827 11.72 23.4827 13.76V25.388C23.4827 25.796 23.2787 26 22.8707 26ZM45.2123 26H43.8083C42.0323 26 40.6523 25.508 39.6683 24.524C38.7083 23.54 38.2283 22.172 38.2283 20.42V13.22C38.2283 11.444 38.7083 10.076 39.6683 9.116C40.6523 8.132 42.0323 7.64 43.8083 7.64H51.8723C52.3043 7.64 52.5203 7.844 52.5203 8.252V25.388C52.5203 25.796 52.3043 26 51.8723 26H49.6043C49.1963 26 48.9923 25.796 48.9923 25.388V24.092H48.8483C48.2723 25.364 47.0603 26 45.2123 26ZM48.9923 19.88V11.06C48.9923 10.82 48.8603 10.7 48.5963 10.7H44.3123C42.5843 10.7 41.7203 11.588 41.7203 13.364V20.276C41.7203 22.052 42.5843 22.94 44.3123 22.94H46.0403C48.0083 22.94 48.9923 21.92 48.9923 19.88ZM55.8942 25.388V24.452C55.8942 23.852 56.0622 23.336 56.3982 22.904L64.7142 10.844V10.7H56.8302C56.3982 10.7 56.1822 10.484 56.1822 10.052V8.252C56.1822 7.844 56.3982 7.64 56.8302 7.64H68.2062C68.6142 7.64 68.8182 7.844 68.8182 8.252V9.908C68.8182 10.484 68.6742 10.94 68.3862 11.276L60.5022 22.796V22.94H68.5302C68.9622 22.94 69.1782 23.156 69.1782 23.588V25.388C69.1782 25.796 68.9622 26 68.5302 26H56.5422C56.1102 26 55.8942 25.796 55.8942 25.388ZM80.9373 26H77.7693C75.9933 26 74.6133 25.508 73.6293 24.524C72.6693 23.54 72.1893 22.172 72.1893 20.42V13.22C72.1893 11.444 72.6693 10.076 73.6293 9.116C74.6133 8.132 75.9933 7.64 77.7693 7.64H80.9373C82.6893 7.64 84.0573 8.132 85.0413 9.116C86.0493 10.076 86.5533 11.444 86.5533 13.22V20.42C86.5533 22.172 86.0493 23.54 85.0413 24.524C84.0573 25.508 82.6893 26 80.9373 26ZM78.2733 22.94H80.4693C82.1973 22.94 83.0613 22.064 83.0613 20.312V13.328C83.0613 11.576 82.1973 10.7 80.4693 10.7H78.2733C77.3613 10.7 76.7013 10.916 76.2933 11.348C75.8853 11.756 75.6813 12.416 75.6813 13.328V20.312C75.6813 21.224 75.8853 21.896 76.2933 22.328C76.7013 22.736 77.3613 22.94 78.2733 22.94ZM97.1339 26H94.0379C93.6779 26 93.4379 25.796 93.3179 25.388L89.1779 8.252C89.0819 7.844 89.2259 7.64 89.6099 7.64H92.2019C92.6339 7.64 92.8739 7.844 92.9219 8.252L95.5499 21.86H95.8019L98.9699 8.252C99.0419 7.844 99.2699 7.64 99.6539 7.64H102.03C102.438 7.64 102.69 7.844 102.786 8.252L105.882 21.86H106.134L108.762 8.252C108.834 7.844 109.074 7.64 109.482 7.64H112.074C112.482 7.64 112.626 7.844 112.506 8.252L108.366 25.388C108.294 25.796 108.054 26 107.646 26H104.55C104.166 26 103.926 25.796 103.83 25.388L100.95 12.032H100.698L97.8539 25.388C97.7819 25.796 97.5419 26 97.1339 26ZM119.829 23.012H124.869C126.669 23.012 127.569 22.148 127.569 20.42V18.188C127.569 16.46 126.621 15.596 124.725 15.596H119.829C119.565 15.596 119.433 15.716 119.433 15.956V22.652C119.433 22.892 119.565 23.012 119.829 23.012ZM119.829 12.716H124.509C126.333 12.716 127.245 11.84 127.245 10.088V8.432C127.245 6.704 126.357 5.84 124.581 5.84H119.829C119.565 5.84 119.433 5.96 119.433 6.2V12.356C119.433 12.596 119.565 12.716 119.829 12.716ZM115.941 25.388V3.464C115.941 3.056 116.145 2.852 116.553 2.852H125.085C126.861 2.852 128.241 3.332 129.225 4.292C130.209 5.252 130.701 6.608 130.701 8.36V10.124C130.701 12.212 129.717 13.556 127.749 14.156C128.685 14.276 129.453 14.684 130.053 15.38C130.677 16.076 130.989 17.012 130.989 18.188V20.492C130.989 22.244 130.497 23.6 129.513 24.56C128.529 25.52 127.161 26 125.409 26H116.553C116.145 26 115.941 25.796 115.941 25.388ZM143.832 26H140.664C138.888 26 137.508 25.508 136.524 24.524C135.564 23.54 135.084 22.172 135.084 20.42V13.22C135.084 11.444 135.564 10.076 136.524 9.116C137.508 8.132 138.888 7.64 140.664 7.64H143.832C145.584 7.64 146.952 8.132 147.936 9.116C148.944 10.076 149.448 11.444 149.448 13.22V20.42C149.448 22.172 148.944 23.54 147.936 24.524C146.952 25.508 145.584 26 143.832 26ZM141.168 22.94H143.364C145.092 22.94 145.956 22.064 145.956 20.312V13.328C145.956 11.576 145.092 10.7 143.364 10.7H141.168C140.256 10.7 139.596 10.916 139.188 11.348C138.78 11.756 138.576 12.416 138.576 13.328V20.312C138.576 21.224 138.78 21.896 139.188 22.328C139.596 22.736 140.256 22.94 141.168 22.94ZM154.124 10.7H152.396C152.156 10.7 151.988 10.664 151.892 10.592C151.82 10.496 151.784 10.34 151.784 10.124V8.252C151.784 7.844 151.988 7.64 152.396 7.64H154.124C154.364 7.64 154.484 7.52 154.484 7.28V4.04C154.484 3.632 154.7 3.428 155.132 3.428H157.4C157.808 3.428 158.012 3.632 158.012 4.04V7.28C158.012 7.52 158.144 7.64 158.408 7.64H161.756C162.188 7.64 162.404 7.844 162.404 8.252V10.124C162.404 10.508 162.188 10.7 161.756 10.7H158.408C158.144 10.7 158.012 10.82 158.012 11.06V20.312C158.012 22.064 158.912 22.94 160.712 22.94H162.116C162.548 22.94 162.764 23.144 162.764 23.552V25.424C162.764 25.808 162.548 26 162.116 26H160.172C158.396 26 157.004 25.52 155.996 24.56C154.988 23.6 154.484 22.244 154.484 20.492V11.06C154.484 10.82 154.364 10.7 154.124 10.7Z" fill="#5865F2"/>
</svg>
