<svg width="320" height="52" viewBox="0 0 290 45" fill="none" xmlns="http://www.w3.org/2000/svg">
<path d="M0.904 35.016V33.352C0.904 32.6267 1.26667 32.264 1.992 32.264H6.088C6.81333 32.264 7.176 32.6267 7.176 33.352V34.504C7.176 36.296 7.56 37.5973 8.328 38.408C9.13867 39.176 10.4613 39.56 12.296 39.56H16.712C18.5467 39.56 19.8693 39.1547 20.68 38.344C21.4907 37.4907 21.896 36.1253 21.896 34.248V32.776C21.896 31.4107 21.3627 30.344 20.296 29.576C19.272 28.7653 17.992 28.2533 16.456 28.04C14.92 27.784 13.2347 27.4427 11.4 27.016C9.56533 26.5893 7.88 26.0987 6.344 25.544C4.808 24.9893 3.50667 23.944 2.44 22.408C1.416 20.872 0.904 18.9093 0.904 16.52V13.832C0.904 10.7173 1.77867 8.28533 3.528 6.536C5.32 4.744 7.77333 3.848 10.888 3.848H17.672C20.8293 3.848 23.2827 4.744 25.032 6.536C26.824 8.28533 27.72 10.7173 27.72 13.832V15.24C27.72 15.9653 27.3573 16.328 26.632 16.328H22.536C21.8107 16.328 21.448 15.9653 21.448 15.24V14.408C21.448 12.5733 21.0427 11.272 20.232 10.504C19.464 9.69333 18.1627 9.288 16.328 9.288H12.296C10.4613 9.288 9.13867 9.71466 8.328 10.568C7.56 11.3787 7.176 12.7867 7.176 14.792V16.776C7.176 18.696 8.56267 19.9973 11.336 20.68C12.5733 20.9787 13.9173 21.2347 15.368 21.448C16.8613 21.6613 18.3547 21.9813 19.848 22.408C21.3413 22.8347 22.7067 23.4107 23.944 24.136C25.1813 24.8187 26.184 25.8853 26.952 27.336C27.72 28.744 28.104 30.472 28.104 32.52V35.016C28.104 38.1307 27.208 40.584 25.416 42.376C23.6667 44.1253 21.2347 45 18.12 45H10.952C7.83733 45 5.384 44.1253 3.592 42.376C1.8 40.584 0.904 38.1307 0.904 35.016ZM41.2145 45H37.1825C36.4572 45 36.0945 44.6373 36.0945 43.912V1.096C36.0945 0.370665 36.4572 0.00799942 37.1825 0.00799942H41.2145C41.9398 0.00799942 42.3025 0.370665 42.3025 1.096V15.752H42.5585C43.5825 13.4907 45.7372 12.36 49.0225 12.36H51.8385C54.9532 12.36 57.3425 13.2133 59.0065 14.92C60.6705 16.6267 61.5025 19.08 61.5025 22.28V43.912C61.5025 44.6373 61.1185 45 60.3505 45H56.3185C55.5932 45 55.2305 44.6373 55.2305 43.912V22.536C55.2305 19.3787 53.6732 17.8 50.5585 17.8H47.5505C44.0518 17.8 42.3025 19.6133 42.3025 23.24V43.912C42.3025 44.6373 41.9398 45 41.2145 45ZM80.933 45H78.437C75.2797 45 72.8263 44.1253 71.077 42.376C69.3703 40.6267 68.517 38.1947 68.517 35.08V22.28C68.517 19.1227 69.3703 16.6907 71.077 14.984C72.8263 13.2347 75.2797 12.36 78.437 12.36H92.773C93.541 12.36 93.925 12.7227 93.925 13.448V43.912C93.925 44.6373 93.541 45 92.773 45H88.741C88.0157 45 87.653 44.6373 87.653 43.912V41.608H87.397C86.373 43.8693 84.2183 45 80.933 45ZM87.653 34.12V18.44C87.653 18.0133 87.4183 17.8 86.949 17.8H79.333C76.261 17.8 74.725 19.3787 74.725 22.536V34.824C74.725 37.9813 76.261 39.56 79.333 39.56H82.405C85.9037 39.56 87.653 37.7467 87.653 34.12ZM99.923 43.912V42.248C99.923 41.1813 100.222 40.264 100.819 39.496L115.603 18.056V17.8H101.587C100.819 17.8 100.435 17.416 100.435 16.648V13.448C100.435 12.7227 100.819 12.36 101.587 12.36H121.811C122.536 12.36 122.899 12.7227 122.899 13.448V16.392C122.899 17.416 122.643 18.2267 122.131 18.824L108.115 39.304V39.56H122.387C123.155 39.56 123.539 39.944 123.539 40.712V43.912C123.539 44.6373 123.155 45 122.387 45H101.075C100.307 45 99.923 44.6373 99.923 43.912ZM144.444 45H138.812C135.655 45 133.201 44.1253 131.452 42.376C129.745 40.6267 128.892 38.1947 128.892 35.08V22.28C128.892 19.1227 129.745 16.6907 131.452 14.984C133.201 13.2347 135.655 12.36 138.812 12.36H144.444C147.559 12.36 149.991 13.2347 151.74 14.984C153.532 16.6907 154.428 19.1227 154.428 22.28V35.08C154.428 38.1947 153.532 40.6267 151.74 42.376C149.991 44.1253 147.559 45 144.444 45ZM139.708 39.56H143.612C146.684 39.56 148.22 38.0027 148.22 34.888V22.472C148.22 19.3573 146.684 17.8 143.612 17.8H139.708C138.087 17.8 136.913 18.184 136.188 18.952C135.463 19.6773 135.1 20.8507 135.1 22.472V34.888C135.1 36.5093 135.463 37.704 136.188 38.472C136.913 39.1973 138.087 39.56 139.708 39.56ZM173.238 45H167.734C167.094 45 166.667 44.6373 166.454 43.912L159.094 13.448C158.923 12.7227 159.179 12.36 159.862 12.36H164.47C165.238 12.36 165.665 12.7227 165.75 13.448L170.422 37.64H170.87L176.502 13.448C176.63 12.7227 177.035 12.36 177.718 12.36H181.942C182.667 12.36 183.115 12.7227 183.286 13.448L188.79 37.64H189.238L193.91 13.448C194.038 12.7227 194.465 12.36 195.19 12.36H199.798C200.523 12.36 200.779 12.7227 200.566 13.448L193.206 43.912C193.078 44.6373 192.651 45 191.926 45H186.422C185.739 45 185.313 44.6373 185.142 43.912L180.022 20.168H179.574L174.518 43.912C174.39 44.6373 173.963 45 173.238 45ZM213.584 39.688H222.544C225.744 39.688 227.344 38.152 227.344 35.08V31.112C227.344 28.04 225.659 26.504 222.288 26.504H213.584C213.115 26.504 212.88 26.7173 212.88 27.144V39.048C212.88 39.4747 213.115 39.688 213.584 39.688ZM213.584 21.384H221.904C225.147 21.384 226.768 19.8267 226.768 16.712V13.768C226.768 10.696 225.189 9.16 222.032 9.16H213.584C213.115 9.16 212.88 9.37333 212.88 9.8V20.744C212.88 21.1707 213.115 21.384 213.584 21.384ZM206.672 43.912V4.936C206.672 4.21067 207.035 3.848 207.76 3.848H222.928C226.085 3.848 228.539 4.70133 230.288 6.408C232.037 8.11466 232.912 10.5253 232.912 13.64V16.776C232.912 20.488 231.163 22.8773 227.664 23.944C229.328 24.1573 230.693 24.8827 231.76 26.12C232.869 27.3573 233.424 29.0213 233.424 31.112V35.208C233.424 38.3227 232.549 40.7333 230.8 42.44C229.051 44.1467 226.619 45 223.504 45H207.76C207.035 45 206.672 44.6373 206.672 43.912ZM256.257 45H250.625C247.467 45 245.014 44.1253 243.265 42.376C241.558 40.6267 240.705 38.1947 240.705 35.08V22.28C240.705 19.1227 241.558 16.6907 243.265 14.984C245.014 13.2347 247.467 12.36 250.625 12.36H256.257C259.371 12.36 261.803 13.2347 263.553 14.984C265.345 16.6907 266.241 19.1227 266.241 22.28V35.08C266.241 38.1947 265.345 40.6267 263.553 42.376C261.803 44.1253 259.371 45 256.257 45ZM251.521 39.56H255.425C258.497 39.56 260.033 38.0027 260.033 34.888V22.472C260.033 19.3573 258.497 17.8 255.425 17.8H251.521C249.899 17.8 248.726 18.184 248.001 18.952C247.275 19.6773 246.913 20.8507 246.913 22.472V34.888C246.913 36.5093 247.275 37.704 248.001 38.472C248.726 39.1973 249.899 39.56 251.521 39.56ZM274.555 17.8H271.483C271.056 17.8 270.757 17.736 270.587 17.608C270.459 17.4373 270.395 17.16 270.395 16.776V13.448C270.395 12.7227 270.757 12.36 271.483 12.36H274.555C274.981 12.36 275.195 12.1467 275.195 11.72V5.96C275.195 5.23466 275.579 4.872 276.347 4.872H280.379C281.104 4.872 281.467 5.23466 281.467 5.96V11.72C281.467 12.1467 281.701 12.36 282.171 12.36H288.123C288.891 12.36 289.275 12.7227 289.275 13.448V16.776C289.275 17.4587 288.891 17.8 288.123 17.8H282.171C281.701 17.8 281.467 18.0133 281.467 18.44V34.888C281.467 38.0027 283.067 39.56 286.267 39.56H288.763C289.531 39.56 289.915 39.9227 289.915 40.648V43.976C289.915 44.6587 289.531 45 288.763 45H285.307C282.149 45 279.675 44.1467 277.883 42.44C276.091 40.7333 275.195 38.3227 275.195 35.208V18.44C275.195 18.0133 274.981 17.8 274.555 17.8Z" fill="#5865F2"/>
</svg>
